<svg width="200" height="200" viewBox="0 0 240 240" fill="none" xmlns="http://www.w3.org/2000/svg" stroke="#E8501A" stroke-width="4" stroke-linecap="round" stroke-linejoin="round">
  <defs>
    <mask id="l4-occlude">
      <rect width="240" height="240" fill="white"></rect>
      <circle cx="146" cy="76" r="13" fill="black"></circle>
    </mask>
  </defs>

  <rect x="49.5" y="49.5" width="141" height="141" rx="22" transform="rotate(45 120 120)"></rect>

  <g mask="url(#l4-occlude)">
    <rect x="92" y="70" width="56" height="100" rx="11"></rect>
    <line x1="111" y1="160" x2="129" y2="160"></line>
  </g>

  <g transform="translate(102.67 86.67) scale(1.4167)" fill="#E8501A" stroke="none">
    <path d="M5.283 18.36a3.505 3.505 0 0 0 2.493-1.032l3.6-3.6a.684.684 0 0 1 .946 0l3.613 3.613a3.504 3.504 0 0 0 2.493 1.032h.71l-4.56 4.56a3.647 3.647 0 0 1-5.156 0l-4.574-4.574h.435zm13.144-12.72a3.504 3.504 0 0 0-2.493 1.032l-3.613 3.613a.67.67 0 0 1-.946 0l-3.6-3.6A3.505 3.505 0 0 0 5.282 5.64h-.435l4.574-4.574a3.646 3.646 0 0 1 5.156 0l4.56 4.56h-.71zM1.696 9.667l2.768-2.768h.819a2.49 2.49 0 0 1 1.75.724l3.6 3.6a1.689 1.689 0 0 0 2.377 0l3.613-3.613a2.49 2.49 0 0 1 1.75-.724h1.143l2.782 2.782a3.646 3.646 0 0 1 0 5.156l-2.782 2.782h-1.142a2.49 2.49 0 0 1-1.75-.724l-3.614-3.613a1.738 1.738 0 0 0-2.378 0l-3.6 3.6a2.49 2.49 0 0 1-1.75.724h-.818l-2.768-2.768a3.646 3.646 0 0 1 0-5.156z"></path>
  </g>

  <text x="120" y="150" text-anchor="middle" font-family="Poppins, system-ui, sans-serif" font-weight="700" font-size="17" letter-spacing="0.5" fill="#E8501A" stroke="none">PIX</text>

  <circle cx="146" cy="76" r="12"></circle>
  <path d="M141 76 L145 80 L152 71" stroke-width="3"></path>
</svg>